<mxfile host="app.diagrams.net" modified="2022-11-01T08:58:31.153Z" agent="5.0 (Macintosh; Intel Mac OS X 10_15_7) AppleWebKit/537.36 (KHTML, like Gecko) Chrome/106.0.0.0 Safari/537.36" etag="bm-wXOg241UAG4fC3Drv" version="20.5.1" type="github">
  <diagram id="kiVAcw7WsYHCVeop7Muy" name="Page-1">
    <mxGraphModel dx="2066" dy="1072" grid="1" gridSize="10" guides="1" tooltips="1" connect="1" arrows="1" fold="1" page="1" pageScale="1" pageWidth="827" pageHeight="1169" math="0" shadow="0">
      <root>
        <mxCell id="0" />
        <mxCell id="1" parent="0" />
        <mxCell id="cXsSBqdWY552JQtja8n9-1" value="10" style="text;html=1;align=center;verticalAlign=middle;resizable=0;points=[];autosize=1;strokeColor=none;fillColor=none;" vertex="1" parent="1">
          <mxGeometry x="390" y="100" width="40" height="30" as="geometry" />
        </mxCell>
        <mxCell id="cXsSBqdWY552JQtja8n9-2" value="" style="group" vertex="1" connectable="0" parent="1">
          <mxGeometry x="420" y="95" width="110" height="50" as="geometry" />
        </mxCell>
        <mxCell id="cXsSBqdWY552JQtja8n9-3" value="" style="group" vertex="1" connectable="0" parent="cXsSBqdWY552JQtja8n9-2">
          <mxGeometry y="5" width="80" height="20" as="geometry" />
        </mxCell>
        <mxCell id="cXsSBqdWY552JQtja8n9-4" value="" style="rounded=0;whiteSpace=wrap;html=1;" vertex="1" parent="cXsSBqdWY552JQtja8n9-3">
          <mxGeometry y="10" width="80" height="10" as="geometry" />
        </mxCell>
        <mxCell id="cXsSBqdWY552JQtja8n9-5" value="" style="verticalLabelPosition=bottom;verticalAlign=top;html=1;shape=mxgraph.basic.orthogonal_triangle;flipV=0;flipH=1;" vertex="1" parent="cXsSBqdWY552JQtja8n9-3">
          <mxGeometry width="80" height="10" as="geometry" />
        </mxCell>
        <mxCell id="cXsSBqdWY552JQtja8n9-6" value="80" style="text;html=1;align=center;verticalAlign=middle;resizable=0;points=[];autosize=1;strokeColor=none;fillColor=none;" vertex="1" parent="cXsSBqdWY552JQtja8n9-2">
          <mxGeometry x="20" y="20" width="40" height="30" as="geometry" />
        </mxCell>
        <mxCell id="cXsSBqdWY552JQtja8n9-7" value="20" style="text;html=1;align=center;verticalAlign=middle;resizable=0;points=[];autosize=1;strokeColor=none;fillColor=none;" vertex="1" parent="cXsSBqdWY552JQtja8n9-2">
          <mxGeometry x="70" width="40" height="30" as="geometry" />
        </mxCell>
        <mxCell id="cXsSBqdWY552JQtja8n9-8" value="" style="group" vertex="1" connectable="0" parent="1">
          <mxGeometry x="180" y="70" width="180" height="105" as="geometry" />
        </mxCell>
        <mxCell id="cXsSBqdWY552JQtja8n9-9" value="" style="rounded=0;whiteSpace=wrap;html=1;" vertex="1" parent="cXsSBqdWY552JQtja8n9-8">
          <mxGeometry width="147" height="80" as="geometry" />
        </mxCell>
        <mxCell id="cXsSBqdWY552JQtja8n9-10" value="80" style="text;html=1;align=center;verticalAlign=middle;resizable=0;points=[];autosize=1;strokeColor=none;fillColor=none;" vertex="1" parent="cXsSBqdWY552JQtja8n9-8">
          <mxGeometry x="140" y="25" width="40" height="30" as="geometry" />
        </mxCell>
        <mxCell id="cXsSBqdWY552JQtja8n9-11" value="150&lt;br&gt;" style="text;html=1;align=center;verticalAlign=middle;resizable=0;points=[];autosize=1;strokeColor=none;fillColor=none;" vertex="1" parent="cXsSBqdWY552JQtja8n9-8">
          <mxGeometry x="40" y="75" width="40" height="30" as="geometry" />
        </mxCell>
        <mxCell id="cXsSBqdWY552JQtja8n9-12" value="" style="group" vertex="1" connectable="0" parent="1">
          <mxGeometry x="40" y="70" width="85" height="110" as="geometry" />
        </mxCell>
        <mxCell id="cXsSBqdWY552JQtja8n9-13" value="" style="rounded=0;whiteSpace=wrap;html=1;" vertex="1" parent="cXsSBqdWY552JQtja8n9-12">
          <mxGeometry x="30" width="55" height="80" as="geometry" />
        </mxCell>
        <mxCell id="cXsSBqdWY552JQtja8n9-14" value="55" style="text;html=1;align=center;verticalAlign=middle;resizable=0;points=[];autosize=1;strokeColor=none;fillColor=none;" vertex="1" parent="cXsSBqdWY552JQtja8n9-12">
          <mxGeometry x="37.5" y="80" width="40" height="30" as="geometry" />
        </mxCell>
        <mxCell id="cXsSBqdWY552JQtja8n9-15" value="80" style="text;html=1;align=center;verticalAlign=middle;resizable=0;points=[];autosize=1;strokeColor=none;fillColor=none;" vertex="1" parent="cXsSBqdWY552JQtja8n9-12">
          <mxGeometry y="25" width="40" height="30" as="geometry" />
        </mxCell>
      </root>
    </mxGraphModel>
  </diagram>
</mxfile>
